<?xml version="1.0" encoding="UTF-8" standalone="no"?><!DOCTYPE svg PUBLIC "-//W3C//DTD SVG 1.1//EN" "http://www.w3.org/Graphics/SVG/1.1/DTD/svg11.dtd"><svg width="3270px" height="501px" version="1.1" xmlns="http://www.w3.org/2000/svg" xmlns:xlink="http://www.w3.org/1999/xlink" xml:space="preserve" xmlns:serif="http://www.serif.com/" style="fill-rule:evenodd;clip-rule:evenodd;stroke-linejoin:round;stroke-miterlimit:2;"><rect id="Artboard1" x="-0" y="-0" width="3269.22" height="500.072" style="fill:none;"/><g><g><path d="M180.471,468.021C265.37,468.021 319.293,405.494 319.293,317.153C319.293,229.385 265.37,166.858 180.471,166.858C136.3,166.858 97.292,187.509 76.067,221.927L76.067,37.787C76.067,34.345 73.773,32.051 70.331,32.051L36.486,32.051C32.47,32.051 30.176,34.345 30.176,37.787L30.176,461.711C30.176,465.727 32.47,468.021 36.486,468.021L65.742,468.021C69.757,468.021 72.052,466.3 72.052,461.711L74.346,409.509C95.571,445.649 135.153,468.021 180.471,468.021ZM171.866,425.571C112.781,425.571 72.052,381.974 72.052,317.153C72.052,252.904 112.781,209.307 171.866,209.307C230.952,209.307 271.68,252.904 271.68,317.153C271.68,381.974 230.952,425.571 171.866,425.571Z" style="fill-rule:nonzero;"/><path d="M338.03,468.021L372.327,468.021C375.814,468.021 378.14,465.696 378.14,461.627L378.14,308.747C378.14,255.849 422.899,215.74 471.146,215.74C479.866,215.74 485.679,216.902 490.91,217.484C494.98,218.065 497.305,216.321 497.305,211.671L497.305,177.956C497.305,174.468 496.142,172.143 492.073,171.561C488.004,170.399 483.354,170.399 476.378,170.399C435.106,170.399 397.903,192.488 376.396,230.853L374.07,180.281C374.07,176.212 371.745,174.468 367.676,174.468L338.03,174.468C333.961,174.468 331.636,176.793 331.636,180.281L331.636,461.627C331.636,465.696 333.961,468.021 338.03,468.021Z" style="fill-rule:nonzero;"/><path d="M631.768,468.021C721.869,468.021 781.161,403.498 781.161,315.141C781.161,226.784 721.869,162.842 631.768,162.842C541.668,162.842 482.957,226.784 482.957,315.141C482.957,403.498 541.668,468.021 631.768,468.021ZM631.768,425.005C571.895,425.005 530.623,380.827 530.623,315.141C530.623,250.036 571.895,205.858 631.768,205.858C691.642,205.858 732.914,250.036 732.914,315.141C732.914,380.827 691.642,425.005 631.768,425.005Z" style="fill-rule:nonzero;"/><path d="M799.898,468.021L834.195,468.021C837.682,468.021 840.007,465.696 840.007,461.627L840.007,362.226L890.58,314.56L992.306,463.952C994.05,466.277 996.376,468.021 999.863,468.021L1041.13,468.021C1045.79,468.021 1047.53,464.533 1045.2,460.464L924.876,282.007L1030.67,182.025C1034.74,177.956 1033,174.468 1027.77,174.468L983.006,174.468C980.099,174.468 977.774,175.049 975.449,177.374L840.007,308.747L840.007,37.864C840.007,34.376 837.682,32.051 834.195,32.051L799.898,32.051C795.829,32.051 793.504,34.376 793.504,37.864L793.504,461.627C793.504,465.696 795.829,468.021 799.898,468.021Z" style="fill-rule:nonzero;"/><path d="M1227.33,447.072C1276.16,418.879 1302.43,374.852 1298.21,317.55C1297.98,313.658 1295.01,312.013 1291.41,312.75L1261.01,318.221C1257.41,318.958 1255.18,320.915 1255.41,324.807C1257.3,360.633 1242.87,389.105 1206.12,410.322C1159.3,437.352 1110.28,423.367 1075.89,375.428L1268.19,264.401C1271.72,262.367 1272.57,259.19 1270.54,255.667C1223.88,172.525 1149.75,139.472 1074.74,182.779C998.729,226.666 982.372,309.944 1026.55,386.463C1070.73,462.982 1150.82,491.25 1227.33,447.072ZM1095.67,219.025C1137.96,194.61 1182.37,209.914 1212.63,254.194L1058.08,343.423C1037.02,291.82 1051.87,244.311 1095.67,219.025Z" style="fill-rule:nonzero;"/><path d="M1317.39,468.021L1351.68,468.021C1355.17,468.021 1357.5,465.696 1357.5,461.627L1357.5,312.816C1357.5,243.061 1406.91,211.671 1448.76,211.671C1497.59,211.671 1519.68,240.154 1519.68,296.54L1519.68,461.627C1519.68,465.696 1522,468.021 1526.07,468.021L1560.37,468.021C1563.86,468.021 1566.18,465.696 1566.18,461.627L1566.18,277.357C1566.18,209.345 1527.24,168.655 1460.97,168.655C1420.86,168.655 1377.84,188.419 1355.75,227.366L1353.43,180.281C1353.43,176.212 1351.1,174.468 1347.03,174.468L1317.39,174.468C1313.32,174.468 1310.99,176.793 1310.99,180.281L1310.99,461.627C1310.99,465.696 1313.32,468.021 1317.39,468.021Z" style="fill-rule:nonzero;"/></g><g><path d="M2219.29,468.021C2304.19,468.021 2358.11,405.494 2358.11,317.153C2358.11,229.385 2304.19,166.858 2219.29,166.858C2175.12,166.858 2136.11,187.509 2114.89,221.927L2114.89,37.787C2114.89,34.345 2112.59,32.051 2109.15,32.051L2075.3,32.051C2071.29,32.051 2068.99,34.345 2068.99,37.787L2068.91,461.711C2068.91,465.727 2071.2,468.021 2075.22,468.021L2104.48,468.021C2108.49,468.021 2110.79,466.3 2110.79,461.711L2113.17,409.509C2134.39,445.649 2173.97,468.021 2219.29,468.021ZM2210.68,425.571C2151.6,425.571 2110.87,381.974 2110.87,317.153C2110.87,252.904 2151.6,209.307 2210.68,209.307C2269.77,209.307 2310.5,252.904 2310.5,317.153C2310.5,381.974 2269.77,425.571 2210.68,425.571Z" style="fill-rule:nonzero;"/><path d="M2595.46,447.072C2644.29,418.879 2670.56,374.852 2666.34,317.55C2666.11,313.658 2663.14,312.013 2659.54,312.75L2629.14,318.221C2625.53,318.958 2623.31,320.915 2623.54,324.807C2625.43,360.633 2610.99,389.105 2574.24,410.322C2527.43,437.352 2478.41,423.367 2444.02,375.428L2636.32,264.401C2639.85,262.367 2640.7,259.19 2638.66,255.667C2592.01,172.525 2517.88,139.472 2442.87,182.779C2366.86,226.666 2350.5,309.944 2394.68,386.463C2438.86,462.982 2518.94,491.25 2595.46,447.072ZM2463.8,219.025C2506.09,194.61 2550.5,209.914 2580.76,254.194L2426.21,343.423C2405.14,291.82 2420,244.311 2463.8,219.025Z" style="fill-rule:nonzero;"/><path d="M2819.21,468.021C2865.72,468.021 2906.41,445.351 2927.34,408.729L2929.08,461.627C2929.08,466.277 2931.99,468.021 2935.47,468.021L2965.7,468.021C2969.19,468.021 2971.51,465.696 2971.51,461.627L2971.51,174.468C2971.51,170.98 2969.19,168.655 2965.7,168.655L2935.47,168.655C2931.99,168.655 2929.08,170.399 2929.08,174.468L2927.34,221.553C2906.41,185.512 2865.72,162.842 2819.21,162.842C2733.76,162.842 2679.12,226.203 2679.12,315.141C2679.12,404.66 2733.76,468.021 2819.21,468.021ZM2827.93,425.005C2768.06,425.005 2726.79,380.827 2726.79,315.141C2726.79,250.036 2768.06,205.858 2827.93,205.858C2887.81,205.858 2929.08,250.036 2929.08,315.141C2929.08,380.827 2887.81,425.005 2827.93,425.005Z" style="fill-rule:nonzero;"/><path d="M2990.25,468.021L3024.55,468.021C3028.03,468.021 3030.36,465.696 3030.36,461.627L3030.36,312.816C3030.36,243.061 3079.77,211.671 3121.62,211.671C3170.45,211.671 3192.54,240.154 3192.54,296.54L3192.54,461.627C3192.54,465.696 3194.87,468.021 3198.93,468.021L3233.23,468.021C3236.72,468.021 3239.04,465.696 3239.04,461.627L3239.04,277.357C3239.04,209.345 3200.1,168.655 3133.83,168.655C3093.72,168.655 3050.7,188.419 3028.62,227.366L3026.29,180.281C3026.29,176.212 3023.97,174.468 3019.9,174.468L2990.25,174.468C2986.18,174.468 2983.86,176.793 2983.86,180.281L2983.86,461.627C2983.86,465.696 2986.18,468.021 2990.25,468.021Z" style="fill-rule:nonzero;"/></g><g><path d="M2019.62,169.128C2018.27,162.092 2012.76,156.596 2005.72,155.262C1998.68,153.928 1991.54,157.027 1987.7,163.079C1979.12,176.516 1968.07,190.859 1953.86,205.075C1953.86,205.076 1953.86,205.077 1953.85,205.078C1926.95,231.991 1888.72,258.424 1834.56,277.421C1726.44,315.333 1694.95,376.999 1685.79,408.112C1685.51,409.093 1685.78,410.151 1686.5,410.876C1686.5,410.876 1686.5,410.876 1686.5,410.876C1745.37,469.747 1860.7,449.867 1944.1,366.461C1944.1,366.461 1944.1,366.461 1944.1,366.461C2004.33,306.231 2031.4,229.365 2019.62,169.128Z" style="fill-rule:nonzero;"/><path d="M1826.05,100.898C1826.53,93.837 1831.22,87.76 1837.92,85.5C1895.74,66.351 1952.59,72.965 1988.49,108.825C1988.54,108.872 1988.58,108.921 1988.62,108.971C1988.63,108.989 1988.64,109.002 1988.65,109.015C1988.7,109.069 1988.72,109.146 1988.7,109.216C1976.87,143.551 1939.3,216.375 1826.94,255.769C1750.81,282.477 1709.23,320.826 1686.51,354.416C1682.52,360.308 1675.34,363.183 1668.38,361.681C1661.43,360.18 1656.08,354.602 1654.87,347.587C1650.53,322.752 1652.72,295.222 1661,267.278C1663.33,259.501 1670.71,254.354 1678.81,254.858C1683.59,255.151 1688.33,255.513 1692.44,255.843C1695.67,256.094 1698.86,255.013 1701.28,252.85C1703.7,250.688 1705.12,247.631 1705.23,244.39C1705.23,244.361 1705.23,244.332 1705.23,244.302C1705.43,238.323 1710.33,233.574 1716.31,233.565C1721.22,233.558 1726.25,233.551 1727.55,233.549C1727.77,233.548 1727.99,233.544 1728.21,233.536C1728.9,233.509 1730.64,233.441 1732.82,233.356C1741.59,233.015 1748.76,226.224 1749.57,217.479C1750.1,211.641 1750.69,205.28 1751.12,200.649C1751.5,196.491 1749.73,192.428 1746.41,189.887C1745.84,189.449 1745.27,189.011 1744.73,188.594C1742.55,186.92 1741.53,184.133 1742.11,181.445C1742.55,179.442 1743.09,176.998 1743.6,174.639C1744.77,169.288 1749.15,165.229 1754.57,164.465C1761.56,163.479 1771.33,162.101 1779.16,160.996C1786.88,159.907 1792.95,153.841 1794.04,146.119C1794.2,144.989 1794.36,143.865 1794.52,142.785C1795.22,137.79 1799.2,133.897 1804.22,133.304C1804.31,133.292 1804.36,133.287 1804.36,133.287C1804.36,133.287 1807.74,132.489 1811.72,131.546C1819.27,129.762 1824.74,123.223 1825.17,115.479C1825.43,110.763 1825.74,105.476 1826.05,100.898Z"/><path d="M1672.06,202.867C1676.09,201.957 1680.32,202.81 1683.69,205.212C1687.05,207.615 1689.23,211.338 1689.68,215.448C1689.73,215.9 1689.77,216.333 1689.82,216.742C1690.08,219.111 1689.13,221.451 1687.3,222.973C1680.56,228.569 1663.97,242.35 1656.21,248.796C1653.52,251.023 1650.24,252.399 1646.77,252.746C1644.16,253.008 1640.75,253.357 1636.97,253.763C1631.24,254.398 1625.57,252.173 1621.81,247.813C1618.04,243.454 1616.66,237.52 1618.11,231.946C1620.94,221.854 1624.37,211.685 1628.48,201.544C1630.67,196.182 1635.39,192.261 1641.07,191.082C1646.74,189.904 1652.63,191.622 1656.78,195.667C1658.49,197.238 1660.05,198.757 1661.38,200.058C1664.09,202.701 1667.96,203.793 1671.65,202.959C1671.79,202.929 1671.92,202.898 1672.06,202.867Z"/><path d="M1786.89,126.212C1781.06,126.462 1775.9,122.447 1774.72,116.731C1773.53,111.014 1776.66,105.28 1782.11,103.187C1782.11,103.187 1782.11,103.186 1782.11,103.186C1786.25,101.595 1790.94,102.502 1794.19,105.523C1797.44,108.544 1798.68,113.152 1797.4,117.398C1796.7,119.693 1796.09,121.725 1795.63,123.224C1795.15,124.811 1793.72,125.92 1792.07,125.991C1790.74,126.047 1788.99,126.123 1786.89,126.212Z"/><path d="M1760.73,83.074C1764.43,85.559 1766.68,89.705 1766.74,94.163C1766.79,98.622 1764.66,102.824 1761.02,105.404C1758.22,107.416 1755.9,109.06 1754.71,109.905C1754.14,110.31 1753.66,110.83 1753.3,111.43C1751.63,114.192 1746.53,122.658 1742.83,128.778C1740.24,133.075 1735.93,136.054 1730.99,136.956C1728.87,137.344 1726.47,137.783 1723.99,138.235C1718.93,139.16 1714.53,142.263 1711.97,146.72C1709.4,151.177 1708.93,156.537 1710.67,161.376C1710.76,161.628 1710.85,161.879 1710.94,162.131C1712.61,166.769 1712.24,171.895 1709.94,176.251C1707.63,180.606 1703.59,183.786 1698.82,185.009C1696.96,185.484 1695.15,185.948 1693.49,186.374C1688.25,187.716 1682.68,186.56 1678.41,183.242C1676.12,181.463 1673.47,179.404 1670.82,177.348C1667.05,174.416 1664.64,170.066 1664.15,165.311C1663.66,160.555 1665.14,155.807 1668.24,152.169C1675.39,143.917 1683.42,135.091 1689.04,129.469C1689.04,129.468 1689.04,129.467 1689.04,129.467C1695.14,123.37 1701.41,117.613 1707.81,112.201C1711.35,109.231 1715.93,107.818 1720.53,108.283C1720.91,108.317 1721.29,108.356 1721.68,108.396C1729.96,109.238 1737.51,103.634 1739.11,95.467C1739.39,93.994 1739.66,92.554 1739.92,91.227C1740.31,89.298 1741.49,87.617 1743.16,86.586C1745.34,85.247 1747.53,83.945 1749.73,82.68C1753.17,80.7 1757.44,80.848 1760.74,83.063C1760.73,83.073 1760.73,83.073 1760.73,83.074Z"/><path d="M1798.68,70.925C1797.88,66.124 1800.85,61.5 1805.55,60.231C1805.55,60.236 1805.55,60.236 1805.55,60.236C1810.09,59.011 1814.94,60.296 1818.28,63.608C1821.61,66.921 1822.93,71.76 1821.74,76.308C1820.83,79.819 1819.95,83.232 1819.23,86.059C1818.14,90.282 1814.41,93.287 1810.05,93.439C1809.72,93.451 1809.39,93.462 1809.06,93.474C1805.43,93.601 1802.26,91.042 1801.62,87.469C1800.79,82.872 1799.64,76.476 1798.68,70.925Z"/></g></g></svg>