<?xml version="1.0" encoding="UTF-8" standalone="no"?><!DOCTYPE svg PUBLIC "-//W3C//DTD SVG 1.1//EN" "http://www.w3.org/Graphics/SVG/1.1/DTD/svg11.dtd"><svg width="2106px" height="460px" version="1.1" xmlns="http://www.w3.org/2000/svg" xmlns:xlink="http://www.w3.org/1999/xlink" xml:space="preserve" xmlns:serif="http://www.serif.com/" style="fill-rule:evenodd;clip-rule:evenodd;stroke-linejoin:round;stroke-miterlimit:2;"><rect id="Full-OutlineEye-Logo-1" x="-0" y="0" width="2105.39" height="459.704" style="fill:none;"/><clipPath id="_clip1"><rect x="-0" y="0" width="2105.39" height="459.704"/></clipPath><g clip-path="url(#_clip1)"><g><g><path d="M753.332,344.453L753.332,0L852.752,0L937.634,227.212L939.041,227.212L1023.92,0L1123.34,0L1123.34,344.453L1047.61,344.453L1047.61,132.951L1045.73,132.951L962.958,344.453L913.717,344.453L830.945,132.951L829.069,132.951L829.069,344.453L753.332,344.453ZM1300.15,350.549C1197.45,350.549 1133.2,283.253 1133.2,175.392L1133.2,174.923C1133.2,67.296 1197.92,0 1300.15,0C1403.09,0 1467.34,67.296 1467.34,174.923L1467.34,175.392C1467.34,283.253 1403.33,350.549 1300.15,350.549ZM1300.15,279.267C1349.39,279.267 1379.88,238.936 1379.88,175.392L1379.88,174.923C1379.88,110.91 1348.69,71.282 1300.15,71.282C1252.09,71.282 1220.9,110.675 1220.9,174.923L1220.9,175.392C1220.9,239.64 1251.85,279.267 1300.15,279.267ZM1641.81,350.549C1540.27,350.549 1477.2,285.598 1477.2,175.157L1477.2,174.923C1477.2,64.482 1540.74,0 1641.81,0C1730.2,0 1791.4,56.744 1794.45,132.482L1794.45,134.827L1711.68,134.827L1711.21,131.309C1705.82,96.137 1681.2,71.282 1641.81,71.282C1594.67,71.282 1564.89,109.972 1564.89,174.688L1564.89,174.923C1564.89,240.343 1594.91,279.267 1642.04,279.267C1679.32,279.267 1705.82,256.053 1711.68,218.302L1712.15,215.723L1794.92,215.723L1794.69,218.302C1791.64,294.039 1729.74,350.549 1641.81,350.549ZM1804.78,344.453L1804.78,0L1890.84,0L1890.84,154.992L1892.48,154.992L2006.43,0L2098.59,0L1982.75,155.695L2105.39,344.453L2004.32,344.453L1919.91,211.033L1890.84,248.784L1890.84,344.453L1804.78,344.453Z" style="fill:rgb(39,39,39);"/><rect x="753.332" y="383.99" width="15.301" height="60.163" style="fill:rgb(39,39,39);fill-rule:nonzero;"/><path d="M776.721,444.153L791.522,444.153L791.522,418.386C791.522,413.342 794.441,409.839 799.152,409.839C803.988,409.839 806.448,412.883 806.448,418.095L806.448,444.153L821.208,444.153L821.208,414.926C821.208,404.169 815.579,397.79 805.614,397.79C798.735,397.79 794.066,401.042 791.814,406.754L791.522,406.754L791.522,398.749L776.721,398.749L776.721,444.153Z" style="fill:rgb(39,39,39);fill-rule:nonzero;"/><path d="M831.839,444.153L846.64,444.153L846.64,409.589L855.062,409.589L855.062,398.749L846.223,398.749L846.223,396.79C846.223,394.163 847.933,392.62 852.018,392.62C853.144,392.62 854.312,392.662 855.145,392.829L855.145,383.656C853.519,383.323 850.643,383.031 848.058,383.031C836.175,383.031 831.839,387.159 831.839,396.123L831.839,398.749L825.794,398.749L825.794,409.589L831.839,409.589L831.839,444.153Z" style="fill:rgb(39,39,39);fill-rule:nonzero;"/><path d="M880.119,445.112C894.42,445.112 903.342,436.481 903.342,421.472L903.342,421.388C903.342,406.587 894.253,397.79 880.119,397.79C866.027,397.79 856.897,406.671 856.897,421.388L856.897,421.472C856.897,436.439 865.735,445.112 880.119,445.112ZM880.161,433.896C875.033,433.896 871.906,429.477 871.906,421.472L871.906,421.388C871.906,413.55 875.116,409.006 880.119,409.006C885.122,409.006 888.375,413.55 888.375,421.388L888.375,421.472C888.375,429.435 885.206,433.896 880.161,433.896Z" style="fill:rgb(39,39,39);fill-rule:nonzero;"/><path d="M909.054,444.153L923.855,444.153L923.855,420.054C923.855,413.592 927.232,410.173 933.444,410.173C935.195,410.173 936.905,410.507 938.156,411.007L938.156,398.374C937.03,397.999 935.737,397.79 934.32,397.79C928.983,397.79 925.398,401.042 924.147,406.796L923.855,406.796L923.855,398.749L909.054,398.749L909.054,444.153Z" style="fill:rgb(39,39,39);fill-rule:nonzero;"/><path d="M942.617,444.153L957.418,444.153L957.418,417.302C957.418,412.8 960.003,409.839 964.005,409.839C968.049,409.839 970.301,412.341 970.301,416.927L970.301,444.153L984.435,444.153L984.435,417.219C984.435,412.716 986.936,409.839 990.939,409.839C995.108,409.839 997.318,412.299 997.318,417.052L997.318,444.153L1012.12,444.153L1012.12,413.258C1012.12,404.044 1006.07,397.79 997.193,397.79C990.438,397.79 984.935,401.626 983.184,407.505L982.892,407.505C981.6,401.334 976.972,397.79 970.509,397.79C964.297,397.79 959.461,401.376 957.71,406.921L957.418,406.921L957.418,398.749L942.617,398.749L942.617,444.153Z" style="fill:rgb(39,39,39);fill-rule:nonzero;"/><path d="M1032.67,444.778C1038.59,444.778 1043.1,442.193 1045.68,437.732L1045.97,437.732L1045.97,444.153L1060.73,444.153L1060.73,413.175C1060.73,403.961 1052.69,397.79 1040.47,397.79C1027.84,397.79 1020.29,403.836 1019.58,412.675L1019.54,413.217L1032.84,413.217L1032.92,412.8C1033.42,410.465 1035.76,408.63 1039.72,408.63C1043.85,408.63 1045.97,410.673 1045.97,413.967L1045.97,416.218L1035.63,416.886C1023.92,417.678 1017.33,422.472 1017.33,431.019L1017.33,431.061C1017.33,438.983 1023.54,444.778 1032.67,444.778ZM1031.84,430.102L1031.84,430.06C1031.84,427.35 1033.88,425.641 1038.01,425.391L1045.97,424.849L1045.97,427.892C1045.97,431.728 1042.6,434.563 1037.84,434.563C1034.22,434.563 1031.84,432.937 1031.84,430.102Z" style="fill:rgb(39,39,39);fill-rule:nonzero;"/><path d="M1087.5,445.112C1090.58,445.112 1092.79,444.861 1094.42,444.57L1094.42,434.063C1093.59,434.188 1092.84,434.271 1091.67,434.271C1088.04,434.271 1086.29,432.812 1086.29,428.893L1086.29,409.589L1094.42,409.589L1094.42,398.749L1086.29,398.749L1086.29,388.284L1071.49,388.284L1071.49,398.749L1065.32,398.749L1065.32,409.589L1071.49,409.589L1071.49,430.894C1071.49,441.151 1076.49,445.112 1087.5,445.112Z" style="fill:rgb(39,39,39);fill-rule:nonzero;"/><path d="M1108.05,393.871C1112.35,393.871 1115.6,390.536 1115.6,386.575C1115.6,382.614 1112.35,379.32 1108.05,379.32C1103.8,379.32 1100.51,382.614 1100.51,386.575C1100.51,390.536 1103.8,393.871 1108.05,393.871ZM1100.67,444.153L1115.43,444.153L1115.43,398.749L1100.67,398.749L1100.67,444.153Z" style="fill:rgb(39,39,39);fill-rule:nonzero;"/><path d="M1144.49,445.112C1158.79,445.112 1167.72,436.481 1167.72,421.472L1167.72,421.388C1167.72,406.587 1158.63,397.79 1144.49,397.79C1130.4,397.79 1121.27,406.671 1121.27,421.388L1121.27,421.472C1121.27,436.439 1130.11,445.112 1144.49,445.112ZM1144.54,433.896C1139.41,433.896 1136.28,429.477 1136.28,421.472L1136.28,421.388C1136.28,413.55 1139.49,409.006 1144.49,409.006C1149.5,409.006 1152.75,413.55 1152.75,421.388L1152.75,421.472C1152.75,429.435 1149.58,433.896 1144.54,433.896Z" style="fill:rgb(39,39,39);fill-rule:nonzero;"/><path d="M1173.43,444.153L1188.23,444.153L1188.23,418.386C1188.23,413.342 1191.15,409.839 1195.86,409.839C1200.69,409.839 1203.15,412.883 1203.15,418.095L1203.15,444.153L1217.91,444.153L1217.91,414.926C1217.91,404.169 1212.29,397.79 1202.32,397.79C1195.44,397.79 1190.77,401.042 1188.52,406.754L1188.23,406.754L1188.23,398.749L1173.43,398.749L1173.43,444.153Z" style="fill:rgb(39,39,39);fill-rule:nonzero;"/><path d="M1256.36,444.153L1271.61,444.153L1271.61,396.289L1288.21,396.289L1288.21,383.99L1239.76,383.99L1239.76,396.289L1256.36,396.289L1256.36,444.153Z" style="fill:rgb(39,39,39);fill-rule:nonzero;"/><path d="M1306.3,445.112C1320.77,445.112 1326.48,436.606 1327.86,430.311L1327.98,429.81L1314.64,429.81L1314.6,430.019C1313.93,431.895 1311.35,434.605 1306.59,434.605C1301.22,434.605 1297.88,430.978 1297.71,424.849L1328.23,424.849L1328.23,420.513C1328.23,406.754 1319.52,397.79 1305.8,397.79C1292,397.79 1283.25,406.838 1283.25,421.43L1283.25,421.472C1283.25,436.148 1291.96,445.112 1306.3,445.112ZM1306.14,408.297C1310.47,408.297 1313.56,411.049 1314.31,416.135L1297.92,416.135C1298.67,411.132 1301.8,408.297 1306.14,408.297Z" style="fill:rgb(39,39,39);fill-rule:nonzero;"/><path d="M1355.67,445.112C1368.76,445.112 1376.72,437.19 1377.01,426.642L1377.01,426.35L1363.46,426.35L1363.38,426.767C1362.8,431.103 1360.17,433.896 1355.83,433.896C1350.58,433.896 1347.58,429.477 1347.58,421.472L1347.58,421.43C1347.58,413.55 1350.66,409.006 1355.79,409.006C1360.13,409.006 1362.8,411.924 1363.38,416.135L1363.42,416.552L1377.01,416.552L1376.97,416.26C1376.76,405.462 1368.34,397.79 1355.54,397.79C1341.41,397.79 1332.57,406.754 1332.57,421.388L1332.57,421.43C1332.57,436.148 1341.37,445.112 1355.67,445.112Z" style="fill:rgb(39,39,39);fill-rule:nonzero;"/><path d="M1382.68,444.153L1397.49,444.153L1397.49,418.428C1397.49,413.425 1400.4,409.839 1405.07,409.839C1409.95,409.839 1412.54,413.092 1412.54,418.47L1412.54,444.153L1427.34,444.153L1427.34,415.301C1427.34,404.378 1421.5,397.79 1411.58,397.79C1404.74,397.79 1400.03,401.001 1397.78,406.921L1397.49,406.921L1397.49,383.99L1382.68,383.99L1382.68,444.153Z" style="fill:rgb(39,39,39);fill-rule:nonzero;"/><path d="M1434.34,444.153L1449.14,444.153L1449.14,418.386C1449.14,413.342 1452.06,409.839 1456.77,409.839C1461.61,409.839 1464.07,412.883 1464.07,418.095L1464.07,444.153L1478.83,444.153L1478.83,414.926C1478.83,404.169 1473.2,397.79 1463.23,397.79C1456.36,397.79 1451.68,401.042 1449.43,406.754L1449.14,406.754L1449.14,398.749L1434.34,398.749L1434.34,444.153Z" style="fill:rgb(39,39,39);fill-rule:nonzero;"/><path d="M1507.6,445.112C1521.9,445.112 1530.82,436.481 1530.82,421.472L1530.82,421.388C1530.82,406.587 1521.73,397.79 1507.6,397.79C1493.5,397.79 1484.37,406.671 1484.37,421.388L1484.37,421.472C1484.37,436.439 1493.21,445.112 1507.6,445.112ZM1507.64,433.896C1502.51,433.896 1499.38,429.477 1499.38,421.472L1499.38,421.388C1499.38,413.55 1502.59,409.006 1507.6,409.006C1512.6,409.006 1515.85,413.55 1515.85,421.388L1515.85,421.472C1515.85,429.435 1512.68,433.896 1507.64,433.896Z" style="fill:rgb(39,39,39);fill-rule:nonzero;"/><rect x="1536.78" y="383.99" width="14.801" height="60.163" style="fill:rgb(39,39,39);fill-rule:nonzero;"/><path d="M1580.77,445.112C1595.07,445.112 1603.99,436.481 1603.99,421.472L1603.99,421.388C1603.99,406.587 1594.9,397.79 1580.77,397.79C1566.67,397.79 1557.54,406.671 1557.54,421.388L1557.54,421.472C1557.54,436.439 1566.38,445.112 1580.77,445.112ZM1580.81,433.896C1575.68,433.896 1572.55,429.477 1572.55,421.472L1572.55,421.388C1572.55,413.55 1575.76,409.006 1580.77,409.006C1585.77,409.006 1589.02,413.55 1589.02,421.388L1589.02,421.472C1589.02,429.435 1585.85,433.896 1580.81,433.896Z" style="fill:rgb(39,39,39);fill-rule:nonzero;"/><path d="M1631.92,459.704C1646.22,459.704 1655.15,452.783 1655.15,442.86L1655.15,398.749L1640.39,398.749L1640.39,406.587L1640.05,406.587C1637.8,401.126 1632.92,397.79 1626.5,397.79C1615.04,397.79 1608.33,406.129 1608.33,420.805L1608.33,420.846C1608.33,434.897 1614.95,442.985 1626.29,442.985C1632.88,442.985 1637.88,440.108 1640.1,435.481L1640.39,435.481L1640.39,443.027C1640.39,447.113 1637.55,449.865 1632.01,449.865C1627.34,449.865 1624.54,447.947 1623.84,446.196L1623.71,445.945L1609.45,445.945L1609.49,446.321C1610.49,453.909 1618.79,459.704 1631.92,459.704ZM1631.88,432.729C1626.67,432.729 1623.33,428.393 1623.33,421.263L1623.33,421.222C1623.33,414.092 1626.71,409.839 1631.88,409.839C1637.05,409.839 1640.47,414.092 1640.47,421.263L1640.47,421.305C1640.47,428.434 1637.09,432.729 1631.88,432.729Z" style="fill:rgb(39,39,39);fill-rule:nonzero;"/><path d="M1670.82,458.954C1681.87,458.954 1689.04,455.701 1692.75,443.944L1707.22,398.749L1691.63,398.749L1683.54,433.062L1683.16,433.062L1675.03,398.749L1658.69,398.749L1674.32,444.153L1673.99,445.112C1673.24,447.113 1671.53,448.072 1668.4,448.072C1666.11,448.072 1664.36,447.822 1663.4,447.613L1663.4,458.328C1665.07,458.62 1667.9,458.954 1670.82,458.954Z" style="fill:rgb(39,39,39);fill-rule:nonzero;"/><path d="M1751.41,445.237C1767.34,445.237 1776.76,437.607 1776.76,425.599L1776.76,425.558C1776.76,415.927 1770.84,410.757 1758.09,408.297L1751.91,407.129C1745.45,405.92 1742.62,404.211 1742.62,400.959L1742.62,400.917C1742.62,397.457 1745.79,394.913 1751.41,394.913C1756.92,394.913 1760.8,397.373 1761.25,401.334L1761.3,401.793L1775.51,401.793L1775.47,400.917C1774.93,389.994 1766.38,382.906 1751.29,382.906C1737.49,382.906 1727.44,390.369 1727.44,401.96L1727.44,402.001C1727.44,411.215 1733.74,417.094 1745.66,419.304L1751.83,420.471C1758.88,421.847 1761.55,423.431 1761.55,426.85L1761.55,426.892C1761.55,430.644 1757.79,433.229 1751.71,433.229C1745.83,433.229 1741.33,430.686 1740.57,426.808L1740.49,426.35L1726.27,426.35L1726.32,427.1C1726.98,438.607 1736.45,445.237 1751.41,445.237Z" style="fill:rgb(39,39,39);fill-rule:nonzero;"/><path d="M1804.66,445.112C1818.96,445.112 1827.88,436.481 1827.88,421.472L1827.88,421.388C1827.88,406.587 1818.79,397.79 1804.66,397.79C1790.56,397.79 1781.43,406.671 1781.43,421.388L1781.43,421.472C1781.43,436.439 1790.27,445.112 1804.66,445.112ZM1804.7,433.896C1799.57,433.896 1796.44,429.477 1796.44,421.472L1796.44,421.388C1796.44,413.55 1799.65,409.006 1804.66,409.006C1809.66,409.006 1812.91,413.55 1812.91,421.388L1812.91,421.472C1812.91,429.435 1809.74,433.896 1804.7,433.896Z" style="fill:rgb(39,39,39);fill-rule:nonzero;"/><rect x="1833.84" y="383.99" width="14.801" height="60.163" style="fill:rgb(39,39,39);fill-rule:nonzero;"/><path d="M1871.41,445.112C1878.29,445.112 1882.91,441.859 1885.21,436.148L1885.5,436.148L1885.5,444.153L1900.26,444.153L1900.26,398.749L1885.5,398.749L1885.5,424.515C1885.5,429.56 1882.54,433.104 1877.87,433.104C1872.99,433.104 1870.57,430.019 1870.57,424.807L1870.57,398.749L1855.77,398.749L1855.77,427.976C1855.77,438.733 1861.44,445.112 1871.41,445.112Z" style="fill:rgb(39,39,39);fill-rule:nonzero;"/><path d="M1927.11,445.112C1930.19,445.112 1932.4,444.861 1934.03,444.57L1934.03,434.063C1933.19,434.188 1932.44,434.271 1931.28,434.271C1927.65,434.271 1925.9,432.812 1925.9,428.893L1925.9,409.589L1934.03,409.589L1934.03,398.749L1925.9,398.749L1925.9,388.284L1911.1,388.284L1911.1,398.749L1904.93,398.749L1904.93,409.589L1911.1,409.589L1911.1,430.894C1911.1,441.151 1916.1,445.112 1927.11,445.112Z" style="fill:rgb(39,39,39);fill-rule:nonzero;"/><path d="M1947.66,393.871C1951.96,393.871 1955.21,390.536 1955.21,386.575C1955.21,382.614 1951.96,379.32 1947.66,379.32C1943.41,379.32 1940.12,382.614 1940.12,386.575C1940.12,390.536 1943.41,393.871 1947.66,393.871ZM1940.28,444.153L1955.04,444.153L1955.04,398.749L1940.28,398.749L1940.28,444.153Z" style="fill:rgb(39,39,39);fill-rule:nonzero;"/><path d="M1984.1,445.112C1998.4,445.112 2007.32,436.481 2007.32,421.472L2007.32,421.388C2007.32,406.587 1998.24,397.79 1984.1,397.79C1970.01,397.79 1960.88,406.671 1960.88,421.388L1960.88,421.472C1960.88,436.439 1969.72,445.112 1984.1,445.112ZM1984.14,433.896C1979.02,433.896 1975.89,429.477 1975.89,421.472L1975.89,421.388C1975.89,413.55 1979.1,409.006 1984.1,409.006C1989.11,409.006 1992.36,413.55 1992.36,421.388L1992.36,421.472C1992.36,429.435 1989.19,433.896 1984.14,433.896Z" style="fill:rgb(39,39,39);fill-rule:nonzero;"/><path d="M2013.04,444.153L2027.84,444.153L2027.84,418.386C2027.84,413.342 2030.76,409.839 2035.47,409.839C2040.3,409.839 2042.76,412.883 2042.76,418.095L2042.76,444.153L2057.52,444.153L2057.52,414.926C2057.52,404.169 2051.89,397.79 2041.93,397.79C2035.05,397.79 2030.38,401.042 2028.13,406.754L2027.84,406.754L2027.84,398.749L2013.04,398.749L2013.04,444.153Z" style="fill:rgb(39,39,39);fill-rule:nonzero;"/><path d="M2084.41,445.112C2096.88,445.112 2105.39,439.149 2105.39,429.769L2105.39,429.727C2105.39,422.931 2101.22,419.179 2091.59,417.261L2083.58,415.676C2079.29,414.801 2077.91,413.634 2077.91,411.674L2077.91,411.632C2077.91,409.256 2080.24,407.755 2083.87,407.755C2087.96,407.755 2090.25,409.965 2090.59,412.633L2090.63,412.966L2104.14,412.966L2104.09,412.633C2103.97,404.503 2097.01,397.79 2083.87,397.79C2071.45,397.79 2063.69,403.419 2063.69,412.466L2063.69,412.508C2063.69,419.429 2068.32,424.057 2077.2,425.766L2085.21,427.35C2089.25,428.184 2090.71,429.31 2090.71,431.353L2090.71,431.395C2090.71,433.729 2088.33,435.147 2084.41,435.147C2080.08,435.147 2077.74,433.354 2077.03,430.269L2076.95,429.935L2062.61,429.935L2062.65,430.311C2063.65,439.149 2070.91,445.112 2084.41,445.112Z" style="fill:rgb(39,39,39);fill-rule:nonzero;"/></g></g><path d="M348.493,-0C425.376,-0 496.692,34.88 554.331,77.432C638.37,139.474 692.937,217.066 692.937,217.066C698.336,224.735 698.336,234.969 692.937,242.638C692.937,242.638 638.37,320.23 554.331,382.272C496.692,424.824 425.376,459.704 348.493,459.704C271.611,459.704 200.294,424.824 142.655,382.272C58.616,320.23 4.05,242.638 4.05,242.638C-1.35,234.969 -1.35,224.735 4.05,217.066C4.05,217.066 58.616,139.474 142.655,77.432C200.294,34.88 271.611,-0 348.493,-0ZM348.493,44.417C281.31,44.417 219.403,75.983 169.036,113.166C111.107,155.933 68.23,206.622 50.017,229.852C68.23,253.082 111.107,303.771 169.036,346.538C219.403,383.721 281.31,415.287 348.493,415.287C415.676,415.287 477.583,383.721 527.95,346.538C585.88,303.771 628.756,253.082 646.969,229.852C628.756,206.622 585.88,155.933 527.95,113.166C477.583,75.983 415.676,44.417 348.493,44.417Z" style="fill:rgb(39,39,39);"/><path d="M348.493,90.898C425.184,90.898 487.447,153.161 487.447,229.852C487.447,306.543 425.184,368.806 348.493,368.806C271.802,368.806 209.539,306.543 209.539,229.852C209.539,153.161 271.802,90.898 348.493,90.898ZM390.792,145.254C367.447,145.254 348.493,164.208 348.493,187.553C348.493,210.898 367.447,229.852 390.792,229.852C414.138,229.852 433.091,210.898 433.091,187.553C433.091,164.208 414.138,145.254 390.792,145.254Z" style="fill:rgb(39,39,39);"/></g></svg>