<?xml version="1.0" encoding="UTF-8" standalone="no"?><!DOCTYPE svg PUBLIC "-//W3C//DTD SVG 1.1//EN" "http://www.w3.org/Graphics/SVG/1.1/DTD/svg11.dtd"><svg width="2106px" height="460px" version="1.1" xmlns="http://www.w3.org/2000/svg" xmlns:xlink="http://www.w3.org/1999/xlink" xml:space="preserve" xmlns:serif="http://www.serif.com/" style="fill-rule:evenodd;clip-rule:evenodd;stroke-linejoin:round;stroke-miterlimit:2;"><rect id="Full-OutlineEye-Logo-2" x="0" y="0" width="2105.39" height="459.704" style="fill:none;"/><clipPath id="_clip1"><rect x="0" y="0" width="2105.39" height="459.704"/></clipPath><g clip-path="url(#_clip1)"><g><path d="M777.421,336.27L777.421,0L874.479,0L957.345,221.814L958.718,221.814L1041.58,0L1138.64,0L1138.64,336.27L1064.7,336.27L1064.7,129.792L1062.87,129.792L982.067,336.27L933.996,336.27L853.191,129.792L851.359,129.792L851.359,336.27L777.421,336.27ZM1311.25,342.221C1210.99,342.221 1148.27,276.524 1148.27,171.225L1148.27,170.767C1148.27,65.697 1211.45,0 1311.25,0C1411.75,0 1474.47,65.697 1474.47,170.767L1474.47,171.225C1474.47,276.524 1411.97,342.221 1311.25,342.221ZM1311.25,272.633C1359.32,272.633 1389.08,233.26 1389.08,171.225L1389.08,170.767C1389.08,108.275 1358.64,69.589 1311.25,69.589C1264.33,69.589 1233.88,108.046 1233.88,170.767L1233.88,171.225C1233.88,233.947 1264.1,272.633 1311.25,272.633ZM1644.79,342.221C1545.67,342.221 1484.09,278.813 1484.09,170.996L1484.09,170.767C1484.09,62.95 1546.13,0 1644.79,0C1731.09,0 1790.83,55.396 1793.81,129.335L1793.81,131.624L1713,131.624L1712.55,128.19C1707.28,93.853 1683.25,69.589 1644.79,69.589C1598.78,69.589 1569.7,107.359 1569.7,170.538L1569.7,170.767C1569.7,234.633 1599.01,272.633 1645.02,272.633C1681.41,272.633 1707.28,249.97 1713,213.116L1713.46,210.598L1794.27,210.598L1794.04,213.116C1791.06,287.054 1730.63,342.221 1644.79,342.221ZM1803.89,336.27L1803.89,0L1887.9,0L1887.9,151.31L1889.51,151.31L2000.76,0L2090.72,0L1977.64,151.997L2097.36,336.27L1998.69,336.27L1916.29,206.02L1887.9,242.874L1887.9,336.27L1803.89,336.27Z" style="fill:rgb(39,39,39);"/><rect x="777.421" y="366.413" width="23.307" height="91.64" style="fill:rgb(39,39,39);fill-rule:nonzero;"/><path d="M835.847,458.053L859.091,458.053L859.091,385.147L884.366,385.147L884.366,366.413L810.572,366.413L810.572,385.147L835.847,385.147L835.847,458.053Z" style="fill:rgb(39,39,39);fill-rule:nonzero;"/><path d="M954.731,459.704C978.991,459.704 993.343,448.082 993.343,429.792L993.343,429.729C993.343,415.059 984.325,407.184 964.892,403.437L955.493,401.659C945.65,399.817 941.331,397.214 941.331,392.26L941.331,392.197C941.331,386.926 946.158,383.052 954.731,383.052C963.114,383.052 969.02,386.799 969.719,392.832L969.782,393.53L991.438,393.53L991.375,392.197C990.549,375.558 977.53,364.762 954.541,364.762C933.52,364.762 918.215,376.129 918.215,393.784L918.215,393.848C918.215,407.883 927.805,416.837 945.967,420.203L955.366,421.981C966.099,424.077 970.163,426.49 970.163,431.698L970.163,431.761C970.163,437.477 964.448,441.414 955.176,441.414C946.221,441.414 939.363,437.54 938.22,431.634L938.093,430.936L916.437,430.936L916.5,432.079C917.517,449.606 931.933,459.704 954.731,459.704Z" style="fill:rgb(39,39,39);fill-rule:nonzero;"/><path d="M1035.83,459.513C1057.61,459.513 1071.2,446.368 1071.2,423.505L1071.2,423.378C1071.2,400.833 1057.36,387.434 1035.83,387.434C1014.36,387.434 1000.46,400.96 1000.46,423.378L1000.46,423.505C1000.46,446.304 1013.92,459.513 1035.83,459.513ZM1035.89,442.43C1028.08,442.43 1023.32,435.699 1023.32,423.505L1023.32,423.378C1023.32,411.439 1028.21,404.517 1035.83,404.517C1043.45,404.517 1048.4,411.439 1048.4,423.378L1048.4,423.505C1048.4,435.635 1043.58,442.43 1035.89,442.43Z" style="fill:rgb(39,39,39);fill-rule:nonzero;"/><rect x="1080.28" y="366.413" width="22.545" height="91.64" style="fill:rgb(39,39,39);fill-rule:nonzero;"/><path d="M1137.5,459.513C1147.98,459.513 1155.03,454.56 1158.52,445.86L1158.97,445.86L1158.97,458.053L1181.45,458.053L1181.45,388.894L1158.97,388.894L1158.97,428.141C1158.97,435.826 1154.46,441.224 1147.35,441.224C1139.92,441.224 1136.23,436.524 1136.23,428.586L1136.23,388.894L1113.69,388.894L1113.69,433.412C1113.69,449.797 1122.33,459.513 1137.5,459.513Z" style="fill:rgb(39,39,39);fill-rule:nonzero;"/><path d="M1222.35,459.513C1227.05,459.513 1230.41,459.132 1232.89,458.688L1232.89,442.684C1231.62,442.875 1230.48,443.002 1228.7,443.002C1223.17,443.002 1220.51,440.779 1220.51,434.809L1220.51,405.406L1232.89,405.406L1232.89,388.894L1220.51,388.894L1220.51,372.954L1197.96,372.954L1197.96,388.894L1188.56,388.894L1188.56,405.406L1197.96,405.406L1197.96,437.858C1197.96,453.48 1205.58,459.513 1222.35,459.513Z" style="fill:rgb(39,39,39);fill-rule:nonzero;"/><path d="M1253.66,381.464C1260.2,381.464 1265.15,376.383 1265.15,370.35C1265.15,364.317 1260.2,359.3 1253.66,359.3C1247.18,359.3 1242.16,364.317 1242.16,370.35C1242.16,376.383 1247.18,381.464 1253.66,381.464ZM1242.42,458.053L1264.9,458.053L1264.9,388.894L1242.42,388.894L1242.42,458.053Z" style="fill:rgb(39,39,39);fill-rule:nonzero;"/><path d="M1309.16,459.513C1330.94,459.513 1344.53,446.368 1344.53,423.505L1344.53,423.378C1344.53,400.833 1330.69,387.434 1309.16,387.434C1287.7,387.434 1273.79,400.96 1273.79,423.378L1273.79,423.505C1273.79,446.304 1287.25,459.513 1309.16,459.513ZM1309.23,442.43C1301.41,442.43 1296.65,435.699 1296.65,423.505L1296.65,423.378C1296.65,411.439 1301.54,404.517 1309.16,404.517C1316.78,404.517 1321.74,411.439 1321.74,423.378L1321.74,423.505C1321.74,435.635 1316.91,442.43 1309.23,442.43Z" style="fill:rgb(39,39,39);fill-rule:nonzero;"/><path d="M1353.24,458.053L1375.78,458.053L1375.78,418.806C1375.78,411.122 1380.23,405.787 1387.4,405.787C1394.77,405.787 1398.52,410.423 1398.52,418.361L1398.52,458.053L1421,458.053L1421,413.535C1421,397.15 1412.42,387.434 1397.25,387.434C1386.77,387.434 1379.65,392.387 1376.22,401.087L1375.78,401.087L1375.78,388.894L1353.24,388.894L1353.24,458.053Z" style="fill:rgb(39,39,39);fill-rule:nonzero;"/><path d="M1461.96,459.513C1480.95,459.513 1493.9,450.432 1493.9,436.143L1493.9,436.08C1493.9,425.728 1487.55,420.012 1472.88,417.091L1460.69,414.678C1454.15,413.344 1452.05,411.566 1452.05,408.581L1452.05,408.518C1452.05,404.898 1455.61,402.612 1461.13,402.612C1467.36,402.612 1470.85,405.977 1471.36,410.042L1471.42,410.55L1492,410.55L1491.93,410.042C1491.74,397.658 1481.14,387.434 1461.13,387.434C1442.21,387.434 1430.39,396.007 1430.39,409.788L1430.39,409.851C1430.39,420.393 1437.44,427.443 1450.97,430.046L1463.16,432.46C1469.33,433.73 1471.55,435.445 1471.55,438.556L1471.55,438.62C1471.55,442.176 1467.93,444.335 1461.96,444.335C1455.35,444.335 1451.8,441.605 1450.72,436.905L1450.59,436.397L1428.74,436.397L1428.81,436.969C1430.33,450.432 1441.38,459.513 1461.96,459.513Z" style="fill:rgb(39,39,39);fill-rule:nonzero;"/></g><path d="M348.493,-0C425.376,-0 496.692,34.88 554.331,77.432C638.37,139.474 692.937,217.066 692.937,217.066C698.336,224.735 698.336,234.969 692.937,242.638C692.937,242.638 638.37,320.23 554.331,382.272C496.692,424.824 425.376,459.704 348.493,459.704C271.611,459.704 200.294,424.824 142.655,382.272C58.616,320.23 4.05,242.638 4.05,242.638C-1.35,234.969 -1.35,224.735 4.05,217.066C4.05,217.066 58.616,139.474 142.655,77.432C200.294,34.88 271.611,-0 348.493,-0ZM348.493,44.417C281.31,44.417 219.403,75.983 169.036,113.166C111.107,155.933 68.23,206.622 50.017,229.852C68.23,253.082 111.107,303.771 169.036,346.538C219.403,383.721 281.31,415.287 348.493,415.287C415.676,415.287 477.583,383.721 527.95,346.538C585.88,303.771 628.756,253.082 646.969,229.852C628.756,206.622 585.88,155.933 527.95,113.166C477.583,75.983 415.676,44.417 348.493,44.417Z" style="fill:rgb(39,39,39);"/><path d="M348.493,90.898C425.184,90.898 487.447,153.161 487.447,229.852C487.447,306.543 425.184,368.806 348.493,368.806C271.802,368.806 209.539,306.543 209.539,229.852C209.539,153.161 271.802,90.898 348.493,90.898ZM390.792,145.254C367.447,145.254 348.493,164.208 348.493,187.553C348.493,210.898 367.447,229.852 390.792,229.852C414.138,229.852 433.091,210.898 433.091,187.553C433.091,164.208 414.138,145.254 390.792,145.254Z" style="fill:rgb(39,39,39);"/></g></svg>