<?xml version="1.0" encoding="UTF-8" standalone="no"?><!DOCTYPE svg PUBLIC "-//W3C//DTD SVG 1.1//EN" "http://www.w3.org/Graphics/SVG/1.1/DTD/svg11.dtd"><svg width="31081px" height="7204px" version="1.1" xmlns="http://www.w3.org/2000/svg" xmlns:xlink="http://www.w3.org/1999/xlink" xml:space="preserve" xmlns:serif="http://www.serif.com/" style="fill-rule:evenodd;clip-rule:evenodd;stroke-linejoin:round;stroke-miterlimit:2;"><rect id="Artboard1" x="0" y="0" width="31080.2" height="7203.74" style="fill:none;"/><clipPath id="_clip1"><rect x="0" y="0" width="31080.2" height="7203.74"/></clipPath><g clip-path="url(#_clip1)"><g><path d="M1011.24,7185.32C942.212,7177.65 865.695,7107.43 863.917,7038C839.359,6078.62 839.359,2388.46 863.917,1429.07C865.695,1359.64 942.295,1290.07 1011.24,1281.75C1214.69,1257.19 1879.42,1257.19 2084.62,1281.75C2156.08,1290.29 2226.28,1358.94 2242.47,1429.07C2274.04,1565.88 2051.3,2132.5 2274.04,2102.56C2600.26,2058.71 3442.12,1165.99 4199.81,1165.99C5567.83,1165.99 6004.68,2385.09 6357.09,3344.32C6716.63,4322.98 6381.63,6397.83 6357.09,7038C6354.42,7107.39 6278.79,7177.71 6209.75,7185.32C5987.02,7209.88 5243.37,7209.88 5020.62,7185.32C4951.6,7177.71 4876.45,7107.38 4873.3,7038C4848.74,6497.8 5060.97,4698.31 4873.3,3944.14C4726.71,3355.1 4515.5,2512.98 3747.31,2512.98C3021.2,2512.98 2553.39,3481.85 2337.18,4175.66C2102.15,4929.83 2361.74,6536.38 2337.18,7038C2333.78,7107.37 2258.87,7177.65 2189.85,7185.32C1968.86,7209.88 1232.23,7209.88 1011.24,7185.32ZM6963.35,1490.75C6911.35,1487.07 6859.85,1431.82 6852.77,1380.18C6834.34,1245.91 6834.34,819.421 6852.77,685.149C6859.85,633.509 6911.35,578.254 6963.35,574.58C7223.97,556.15 8284.95,649.616 8527.15,574.58C8670.5,530.171 8508.73,217.856 8527.15,124.391C8537.23,73.249 8586,20.282 8637.72,13.822C8785.15,-4.607 9264.3,-4.607 9411.73,13.822C9463.45,20.282 9512.22,73.249 9522.31,124.391C9540.74,217.856 9376.39,539.486 9522.31,574.58C9834.28,649.616 11082.2,649.616 11394.1,574.58C11540,539.486 11375.7,217.856 11394.1,124.391C11404.2,73.249 11453,20.341 11504.7,13.822C11650.8,-4.607 12124.7,-4.607 12270.8,13.822C12322.5,20.341 12371.3,73.249 12381.4,124.391C12399.8,217.856 12237.8,531.036 12381.4,574.58C12628.9,649.616 13600.3,556.15 13866.2,574.58C13918.2,578.183 13969.7,633.509 13976.8,685.149C13995.2,819.421 13995.2,1245.91 13976.8,1380.18C13969.7,1431.82 13918.2,1487.14 13866.2,1490.75C13600.3,1509.18 12628.9,1419.67 12381.4,1490.75C12244.7,1530 12399.8,1827.74 12381.4,1917.24C12370.9,1968.3 12322.5,2021.29 12270.8,2027.81C12124.7,2046.24 11650.8,2046.24 11504.7,2027.81C11453,2021.29 11404.6,1968.3 11394.1,1917.24C11375.7,1827.74 11532.7,1522.33 11394.1,1490.75C11082.2,1419.67 9834.28,1419.67 9522.31,1490.75C9383.68,1522.33 9540.74,1827.74 9522.31,1917.24C9511.79,1968.3 9463.45,2021.35 9411.73,2027.81C9264.3,2046.24 8785.15,2046.24 8637.72,2027.81C8586,2021.35 8537.66,1968.3 8527.15,1917.24C8508.73,1827.74 8663.56,1530.78 8527.15,1490.75C8284.95,1419.67 7223.97,1509.18 6963.35,1490.75ZM7389.83,2525.39C7393.03,2473.37 7448.34,2417.32 7500.41,2414.82C7883.46,2396.39 9607.86,2492.49 9972.48,2414.82C10124.4,2382.47 9954.07,2044.93 9972.48,1948.84C9982.31,1897.64 10031.3,1844.73 10083.1,1838.26C10230.5,1819.83 10709.6,1819.83 10857.1,1838.26C10908.8,1844.73 10957.8,1897.64 10967.6,1948.84C10986.1,2044.93 10815.7,2382.47 10967.6,2414.82C11332.3,2492.49 12956.5,2396.39 13339.6,2414.82C13391.6,2417.32 13446.9,2473.37 13450.1,2525.39C13468.6,2825.52 13350.1,3663.83 13450.1,3945.52C13517.1,4134.06 13747.7,4197.14 13866.2,4215.57C13917.7,4223.58 13969.3,4274.55 13976.8,4326.15C13995.2,4453.83 13995.2,4853.99 13976.8,4981.67C13969.3,5033.27 13918.3,5090.11 13866.2,5092.25C13417.3,5110.68 11491.5,5020.45 11504.7,5204.74C11517.9,5389.03 12768.4,6079.51 13945.2,6197.97C14024.2,6205.88 14038.6,6282.37 14024.2,6332.24C13980.7,6482.3 13764.9,6958.81 13684.6,7098.35C13658.1,7144.26 13590.1,7192.56 13542.4,7169.43C13010.6,6911.43 11550.7,6192.71 10529.2,6197.97C9507.7,6203.24 7930.85,6925.91 7413.53,7201.02C7406.55,7204.73 7396.89,7204.56 7389.83,7201.02C7366.14,7189.17 7293.89,7170.11 7271.37,7129.93C7192.39,6989.1 6977.82,6494.15 6915.95,6355.93C6908.13,6338.44 6900.16,6316.44 6900.16,6300.64C6900.16,6261.15 6957.21,6238.02 6994.93,6221.66C7459.6,6020.27 9832.89,5392.98 9846.06,5204.74C9859.22,5016.51 7528.05,5110.68 7073.91,5092.25C7021.84,5090.13 6970.79,5033.27 6963.35,4981.67C6944.91,4853.99 6944.91,4453.83 6963.35,4326.15C6970.79,4274.55 7022.4,4223.58 7073.91,4215.57C7192.39,4197.14 7433.45,4230.91 7500.41,4042.37C7600.45,3760.67 7371.4,2825.52 7389.83,2525.39ZM12278.7,4215.57C12505.1,4053.65 12321.6,3406.02 12101.7,3244.11C11881.9,3082.2 11510,3082.2 11283.6,3244.11C11057.1,3406.02 10906.4,4053.65 11126.2,4215.57C11346,4377.48 12052.3,4377.48 12278.7,4215.57ZM9688.16,4042.37C9906.67,3880.46 10181.8,3406.02 9972.48,3244.11C9763.19,3082.2 8879.93,3082.2 8661.42,3244.11C8442.9,3406.02 8619.5,3880.46 8828.78,4042.37C9038.09,4204.28 9469.65,4204.28 9688.16,4042.37ZM17135.2,3336.41C16970.4,3522.7 16310.3,3050.45 16146.4,3336.41C15981.6,3624.02 16127.8,4708.51 16146.4,5062.02C16153.6,5198.83 16183.7,5377.28 16258.2,5457.53C16332.7,5537.78 16493.6,5560.66 16619.3,5577.91C16765.5,5597.97 17065.4,5420.77 17135.2,5577.91C17221.2,5771.36 17264.2,6912.77 17135.2,7106.23C17006.2,7299.69 16614.9,7153.59 16361.4,7106.23C16046.8,7047.48 15480.1,6988.73 15247.9,6753.71C15015.8,6518.69 14943.7,5661.98 14899.7,5276.98C14841.7,4768.69 15028.7,3659.85 14899.7,3336.41C14804.2,3096.82 14254.8,3522.7 14125.9,3336.41C13996.9,3150.12 13996.9,2404.95 14125.9,2218.65C14254.8,2032.36 14780.2,2447.27 14899.7,2218.65C15028.7,1971.82 14691.9,984.509 14899.7,737.677C15107.5,490.857 15938.6,490.857 16146.4,737.677C16354.2,984.509 15981.6,1971.82 16146.4,2218.65C16311.2,2465.5 16970.4,2032.36 17135.2,2218.65C17300,2404.95 17300,3150.12 17135.2,3336.41ZM18458.9,1520.47C18242.8,1520.47 18058.7,1448.28 17906.8,1303.92C17754.8,1159.55 17678.9,976.781 17678.9,755.621C17678.9,534.473 17754.8,353.243 17906.8,211.942C18058.7,70.641 18242.8,0.003 18458.9,0.003C18669.3,0.003 18849,72.182 18998,216.553C19147,360.923 19221.5,540.612 19221.5,755.621C19221.5,976.781 19147,1159.55 18998,1303.92C18849,1448.28 18669.3,1520.47 18458.9,1520.47ZM17792.8,2265.26C17918.8,1823.94 18981.6,1823.94 19107.5,2265.26C19326.6,3033.18 19326.6,6104.84 19107.5,6872.74C18981.6,7314.07 17918.8,7314.07 17792.8,6872.74C17573.7,6104.84 17573.7,3033.18 17792.8,2265.26ZM23074.3,1940.83C23373.6,1558.41 24504.7,1443.61 24475.3,1940.83C24426.8,2764.7 23306.2,6060.18 22782.8,6884.05C22511.9,7310.3 21605.5,7310.3 21334.7,6884.05C20811.2,6060.18 19690.7,2764.7 19642.1,1940.83C19612.8,1443.61 20743.8,1558.41 21043.2,1940.83C21445.9,2455.41 21720.2,5028.3 22058.7,5028.3C22397.2,5028.3 22671.5,2455.41 23074.3,1940.83ZM30069.2,3706.4C30169.5,4053.24 30396.9,4692.33 30046.3,4788.64C29389.7,4969.02 26575.8,4629.16 26129.8,4788.64C25683.8,4948.13 26727,5745.56 27370.2,5745.56C27668.8,5745.56 27934.9,5675.32 28168.4,5534.81C28402,5394.32 28446.2,4960.23 28702.5,4982.3C29000.1,5007.94 29926.6,5387.67 29954.4,5688.6C29982.1,5989.54 29355.2,6510.72 28869,6787.93C28382.8,7065.14 27864.1,7203.74 27312.8,7203.74C26493.5,7203.74 25815.9,6917.03 25279.9,6343.64C24743.9,5770.25 24475.9,5050.65 24475.9,4184.87C24475.9,3311.48 24743.9,2589.98 25279.9,2020.38C25815.9,1450.79 26505,1165.99 27347.2,1165.99C28082.3,1165.99 28698.7,1393.83 29196.4,1849.51C29694,2305.19 29927.6,3216.54 30069.2,3706.4ZM27289.8,2624.16C26669.6,2624.16 25940.3,3440.58 26129.8,3603.87C26319.3,3767.15 28105.3,3722.54 28426.8,3603.87C28678.8,3510.9 28266,3070.35 28059.3,2891.88C27852.6,2713.4 27596.1,2624.16 27289.8,2624.16Z"/></g></g></svg>