<?xml version="1.0" encoding="UTF-8" standalone="no"?><!DOCTYPE svg PUBLIC "-//W3C//DTD SVG 1.1//EN" "http://www.w3.org/Graphics/SVG/1.1/DTD/svg11.dtd"><svg width="11564px" height="1806px" version="1.1" xmlns="http://www.w3.org/2000/svg" xmlns:xlink="http://www.w3.org/1999/xlink" xml:space="preserve" xmlns:serif="http://www.serif.com/" style="fill-rule:evenodd;clip-rule:evenodd;stroke-linejoin:round;stroke-miterlimit:2;"><rect id="Artboard4" x="0" y="0" width="11563.5" height="1805.91" style="fill:none;"/><path d="M722.156,1799.54C617.845,1799.54 520.554,1786.7 430.285,1761.03C340.015,1735.35 263.587,1704.86 201,1669.55L117.952,1753.81L15.647,1753.81L-0,1136.36L103.509,1136.36C126.779,1194.94 156.467,1256.72 192.575,1321.71C228.683,1386.71 270.407,1444.88 317.749,1496.24C366.695,1550 421.459,1593.73 482.039,1627.43C542.62,1661.13 613.432,1677.98 694.474,1677.98C803.6,1677.98 887.249,1651.3 945.423,1597.94C1003.6,1544.58 1032.68,1477.38 1032.68,1396.34C1032.68,1329.74 1008.01,1273.77 958.663,1228.44C909.315,1183.1 832.887,1143.98 729.378,1111.09C661.977,1089.42 599.992,1069.36 543.423,1050.91C486.854,1032.45 433.695,1013.6 383.947,994.337C269.204,948.601 183.949,883.205 128.183,798.151C72.416,713.097 44.533,618.014 44.533,512.9C44.533,446.301 58.976,382.31 87.862,320.926C116.749,259.543 158.874,204.378 214.24,155.432C267.198,109.696 335,72.384 417.647,43.498C500.294,14.612 590.162,0.169 687.252,0.169C781.935,0.169 870.6,13.207 953.247,39.285C1035.89,65.363 1100.89,91.642 1148.23,118.121L1221.65,45.905L1326.36,45.905L1335.99,628.445L1232.48,628.445C1208.41,565.858 1180.12,501.867 1147.63,436.471C1115.13,371.076 1080.83,316.714 1044.72,273.384C1005.4,226.845 960.067,189.735 908.714,162.052C857.36,134.369 797.181,120.528 728.174,120.528C641.516,120.528 570.704,145.001 515.74,193.947C460.776,242.893 433.294,303.474 433.294,375.69C433.294,443.894 457.165,499.66 504.908,542.989C552.65,586.319 627.073,624.433 728.174,657.331C787.552,677.391 848.133,697.451 909.917,717.511C971.702,737.571 1026.67,756.828 1074.81,775.283C1191.16,820.217 1279.62,882.202 1340.2,961.238C1400.78,1040.27 1431.07,1138.37 1431.07,1255.52C1431.07,1329.34 1413.82,1400.75 1379.32,1469.76C1344.82,1538.76 1298.28,1596.13 1239.7,1641.87C1175.51,1692.42 1101.29,1731.34 1017.04,1758.62C932.785,1785.9 834.492,1799.54 722.156,1799.54ZM4245.52,185.522C4216.64,188.732 4190.16,193.947 4166.08,201.169C4142.01,208.39 4119.14,218.42 4097.48,231.259C4062.98,250.516 4032.29,275.19 4005.41,305.28C3978.52,335.369 3952.25,368.87 3926.57,405.78C3874.41,482.007 3819.65,564.855 3762.28,654.322C3704.91,743.789 3642.52,842.283 3575.12,949.804C3530.99,1018.01 3503.91,1070.36 3493.88,1106.87C3483.85,1143.38 3478.83,1206.57 3478.83,1296.44L3478.83,1538.36C3478.83,1567.25 3484.25,1592.52 3495.08,1614.19C3505.91,1635.85 3526.58,1653.51 3557.07,1667.15C3570.71,1672.76 3599.59,1680.18 3643.72,1689.41C3687.86,1698.64 3720.35,1704.06 3741.22,1705.66L3741.22,1799.54L2789.17,1799.54L2789.17,1705.66C2811.64,1704.06 2843.94,1700.85 2886.06,1696.03C2928.19,1691.22 2957.68,1685.6 2974.53,1679.18C3004.22,1666.34 3024.47,1649.29 3035.31,1628.03C3046.14,1606.77 3051.56,1580.89 3051.56,1550.4L3051.56,1249.5C3051.56,1223.02 3051.16,1199.75 3050.35,1179.69C3049.55,1159.63 3046.74,1142.78 3041.93,1129.14C3036.31,1113.89 3026.68,1094.44 3013.04,1070.77C2999.4,1047.1 2981.75,1016.4 2960.08,978.691C2898.3,870.367 2838.52,767.66 2780.75,670.57C2722.97,573.481 2668.01,482.409 2615.86,397.355C2588.57,353.223 2561.09,317.717 2533.41,290.837C2505.73,263.956 2477.44,242.091 2448.56,225.241C2426.89,213.205 2400.61,203.977 2369.72,197.558C2338.83,191.139 2310.95,187.127 2286.07,185.522L2286.07,91.642L3264.59,91.642L3264.59,185.522C3174.72,187.929 3114.14,194.148 3082.85,204.178C3051.56,214.208 3035.91,228.049 3035.91,245.702C3035.91,254.528 3041.73,272.181 3053.36,298.66C3065,325.139 3085.66,366.061 3115.35,421.426C3142.63,473.582 3182.55,545.397 3235.1,636.87C3287.66,728.343 3350.85,835.463 3424.67,958.229C3577.13,716.708 3681.84,548.004 3738.81,452.118C3795.78,356.232 3824.26,297.456 3824.26,275.792C3824.26,248.51 3807.61,227.648 3774.31,213.205C3741.01,198.762 3687.05,189.534 3612.43,185.522L3612.43,91.642L4245.52,91.642L4245.52,185.522ZM4928.78,670.556C4985.1,727.877 5028.09,796.414 5057.77,876.166C5087.45,955.918 5102.29,1042.32 5102.29,1135.36C5102.29,1227.57 5087.64,1314.59 5058.34,1396.42C5029.05,1478.25 4986.24,1548.24 4929.93,1606.39C4869.81,1668.7 4798.08,1716.47 4714.75,1749.7C4631.42,1782.93 4536.11,1799.54 4428.81,1799.54C4335.97,1799.54 4250.55,1785 4172.54,1755.93C4094.54,1726.85 4025.48,1683.24 3965.36,1625.09C3907.53,1569.42 3861.87,1500.68 3828.38,1418.85C3794.9,1337.02 3778.16,1245.43 3778.16,1144.08C3778.16,1044.39 3792.81,955.71 3822.1,878.035C3851.4,800.36 3895.35,731.2 3953.95,670.556C4010.26,612.404 4079.7,567.335 4162.27,535.352C4244.84,503.368 4337.11,487.376 4439.08,487.376C4545.62,487.376 4639.41,503.368 4720.46,535.352C4801.51,567.335 4870.95,612.404 4928.78,670.556ZM4636.56,1534.12C4653.3,1487.6 4665.67,1431.11 4673.66,1364.64C4681.65,1298.19 4685.65,1220.93 4685.65,1132.87C4685.65,1074.71 4681.84,1008.25 4674.23,933.487C4666.62,858.72 4655.2,799.737 4639.98,756.538C4621.72,704.201 4596.42,663.079 4564.08,633.172C4531.73,603.265 4490.83,588.312 4441.36,588.312C4387.33,588.312 4344.15,604.511 4311.81,636.911C4279.46,669.31 4254.54,711.262 4237.04,762.769C4221.06,810.121 4210.02,865.574 4203.93,929.126C4197.85,992.678 4194.8,1058.93 4194.8,1127.88C4194.8,1218.43 4197.47,1293.41 4202.79,1352.81C4208.12,1412.21 4221.06,1471.81 4241.6,1531.63C4259.11,1583.13 4284.22,1623.84 4316.94,1653.75C4349.66,1683.65 4391.14,1698.61 4441.36,1698.61C4487.03,1698.61 4526.22,1684.69 4558.94,1656.86C4591.66,1629.03 4617.54,1588.12 4636.56,1534.12ZM6678.06,1799.54L6103.95,1799.54L6085.89,1783.18L6085.89,1598.54L6078.67,1598.54C6051.39,1623.42 6024.71,1647.69 5998.63,1671.36C5972.56,1695.03 5941.46,1716.49 5905.36,1735.75C5864.43,1757.42 5825.72,1773.46 5789.21,1783.89C5752.7,1794.33 5699.54,1799.54 5629.73,1799.54C5508.57,1799.54 5415.69,1763.03 5351.1,1690.02C5286.51,1617 5254.21,1513.89 5254.21,1380.69L5254.21,839.074C5254.21,807.78 5248.19,782.304 5236.16,762.645C5224.12,742.987 5208.07,725.535 5188.01,710.289C5171.97,698.253 5151.1,689.627 5125.43,684.412C5099.75,679.196 5076.48,675.786 5055.62,674.181L5055.62,586.319L5639.36,555.025L5652.6,573.079L5652.6,1373.47C5652.6,1456.12 5668.45,1517.1 5700.14,1556.42C5731.84,1595.73 5775.37,1615.39 5830.73,1615.39C5887.7,1615.39 5938.86,1600.55 5984.19,1570.86C6029.53,1541.17 6062.62,1509.48 6083.49,1475.78L6083.49,827.038C6083.49,799.756 6078.27,775.283 6067.84,753.618C6057.41,731.954 6042.16,714.301 6022.1,700.66C6007.66,691.032 5987,684.612 5960.12,681.403C5933.24,678.193 5905.76,675.786 5877.67,674.181L5877.67,586.319L6461.41,555.025L6479.47,573.079L6479.47,1502.25C6479.47,1530.34 6485.09,1554.21 6496.32,1573.87C6507.55,1593.53 6524,1610.18 6545.67,1623.82C6560.91,1633.45 6580.77,1640.07 6605.24,1643.68C6629.72,1647.29 6653.99,1649.49 6678.06,1650.3L6678.06,1799.54ZM7449.15,1799.54C7344.84,1799.54 7247.55,1786.7 7157.28,1761.03C7067.01,1735.35 6990.58,1704.86 6927.99,1669.55L6844.94,1799.54L6734.81,1799.54L6734.81,1136.36L6830.5,1136.36C6853.77,1194.94 6883.46,1256.72 6919.57,1321.71C6955.67,1386.71 6997.4,1444.88 7044.74,1496.24C7093.69,1550 7148.45,1593.73 7209.03,1627.43C7269.61,1661.13 7340.42,1677.98 7421.47,1677.98C7530.59,1677.98 7614.24,1651.3 7672.41,1597.94C7730.59,1544.58 7759.67,1477.38 7759.67,1396.34C7759.67,1329.74 7735,1273.77 7685.65,1228.44C7636.31,1183.1 7559.88,1143.98 7456.37,1111.09C7388.97,1089.42 7326.98,1069.36 7270.41,1050.91C7213.85,1032.45 7160.69,1013.6 7110.94,994.337C6996.19,948.601 6910.94,883.205 6855.17,798.151C6799.41,713.097 6771.52,618.014 6771.52,512.9C6771.52,446.301 6785.97,382.31 6814.85,320.926C6843.74,259.543 6885.86,204.378 6941.23,155.432C6994.19,109.696 7061.99,72.384 7144.64,43.498C7227.28,14.612 7317.15,0.169 7414.24,0.169C7508.93,0.169 7597.59,13.207 7680.24,39.285C7762.88,65.363 7827.88,91.642 7875.22,118.121L7948.64,45.905L8053.35,45.905L8062.98,628.445L7959.47,628.445C7935.4,565.858 7907.11,501.867 7874.62,436.471C7842.12,371.076 7807.82,316.714 7771.71,273.384C7732.39,226.845 7687.06,189.735 7635.7,162.052C7584.35,134.369 7524.17,120.528 7455.16,120.528C7368.51,120.528 7297.69,145.001 7242.73,193.947C7187.77,242.893 7160.28,303.474 7160.28,375.69C7160.28,443.894 7184.16,499.66 7231.9,542.989C7279.64,586.319 7354.06,624.433 7455.16,657.331C7514.54,677.391 7575.12,697.451 7636.91,717.511C7698.69,737.571 7753.66,756.828 7801.8,775.283C7918.15,820.217 8006.61,882.202 8067.19,961.238C8127.77,1040.27 8158.06,1138.37 8158.06,1255.52C8158.06,1329.34 8140.81,1400.75 8106.31,1469.76C8071.81,1538.76 8025.27,1596.13 7966.69,1641.87C7902.5,1692.42 7828.28,1731.34 7744.03,1758.62C7659.78,1785.9 7561.48,1799.54 7449.15,1799.54ZM9485.21,1473.37C9457.13,1519.1 9423.23,1562.23 9383.51,1602.75C9343.79,1643.28 9298.65,1677.98 9248.1,1706.87C9194.34,1737.36 9139.98,1760.42 9085.01,1776.07C9030.05,1791.72 8966.86,1799.54 8895.45,1799.54C8776.69,1799.54 8674.19,1782.69 8587.93,1748.99C8501.67,1715.29 8430.46,1669.95 8374.29,1612.99C8318.12,1556.02 8276.2,1488.81 8248.52,1411.38C8220.83,1333.95 8206.99,1249.9 8206.99,1159.23C8206.99,1077.38 8222.04,998.951 8252.13,923.927C8282.22,848.903 8324.94,782.104 8380.31,723.529C8434.87,666.558 8503.68,620.421 8586.73,585.115C8669.77,549.81 8762.65,532.157 8865.36,532.157C8977.69,532.157 9069.97,545.798 9142.18,573.079C9214.4,600.361 9274.18,638.073 9321.52,686.217C9367.26,731.954 9400.56,785.915 9421.42,848.101C9442.28,910.286 9452.71,975.481 9452.71,1043.68L9452.71,1121.92L8639.08,1121.92C8639.08,1286.41 8670.78,1411.58 8734.17,1497.44C8797.56,1583.3 8898.26,1626.22 9036.27,1626.22C9111.69,1626.22 9179.5,1605.56 9239.68,1564.24C9299.86,1522.92 9351.21,1470.56 9393.74,1407.17L9485.21,1473.37ZM9025.44,1016C9025.44,967.858 9023.03,918.511 9018.22,867.96C9013.4,817.409 9004.98,776.086 8992.94,743.99C8979.3,706.277 8960.64,677.792 8936.97,658.535C8913.3,639.277 8883.41,629.648 8847.31,629.648C8785.52,629.648 8736.17,660.942 8699.26,723.529C8662.35,786.115 8642.29,885.211 8639.08,1020.82L9025.44,1016ZM11563.5,682.606C11526.6,688.223 11492.5,700.46 11461.2,719.316C11429.9,738.172 11403.4,773.277 11381.8,824.631C11325.6,961.84 11280.7,1072.57 11247,1156.82C11213.3,1241.07 11165.9,1362.64 11105,1521.51C11092.1,1554.41 11076.7,1599.75 11058.6,1657.52C11040.6,1715.29 11026.3,1762.63 11015.9,1799.54L10781.2,1799.54L10477.9,981.098L10193.8,1799.54L9961.54,1799.54C9880.5,1580.49 9816.71,1410.58 9770.17,1289.82C9723.63,1169.06 9661.44,1009.58 9583.61,811.391C9569.17,773.678 9544.5,743.99 9509.59,722.325C9474.69,700.66 9438.78,687.421 9401.87,682.606L9401.87,594.744L10140.9,594.744L10140.9,682.606C10113.6,685.014 10081.1,691.433 10043.4,701.864C10005.7,712.295 9986.82,726.337 9986.82,743.99C9986.82,752.014 9987.82,759.035 9989.83,765.053C9991.83,771.071 9995.24,782.104 10000.1,798.151C10021.7,860.738 10051.4,941.58 10089.1,1040.68C10126.8,1139.77 10171,1255.12 10221.5,1386.71L10488.7,594.744L10727,594.744L11031.5,1413.19C11078.1,1289.62 11114,1192.33 11139.3,1121.32C11164.5,1050.3 11196.4,958.631 11234.9,846.295C11240.6,829.445 11244,814.4 11245.2,801.16C11246.4,787.921 11246.6,779.295 11245.8,775.283C11245.8,760.84 11238.6,747.801 11224.1,736.166C11209.7,724.532 11192.4,715.103 11172.4,707.882C11152.3,700.66 11132.8,695.044 11114,691.032C11095.1,687.02 11079.3,684.211 11066.4,682.606L11066.4,594.744L11563.5,594.744L11563.5,682.606ZM2145.09,493.572C2439.11,493.808 2637.54,650.29 2741.38,875.817C2779.76,959.175 2815.39,1052.53 2801.17,1149.65C2759.04,1437.43 2698.94,1563.64 2494.69,1704.8C2396.2,1772.88 2298.94,1805.93 2145.09,1805.74C1918.19,1805.45 1744.57,1691.06 1606.69,1524.49C1524.05,1424.64 1479.88,1288.67 1489.01,1149.65C1503.77,924.669 1612.42,742.821 1772.5,609.701C1880.62,519.788 2006.75,493.46 2145.09,493.572ZM1613.33,1145.7C1592.97,1379.73 1762.24,1561.98 1974.05,1653.02C2026.38,1675.52 2085.78,1681.51 2145.85,1681.51C2292.54,1681.51 2416.38,1627.15 2518.78,1536.98C2633.36,1436.07 2678.51,1295.99 2678.51,1148.85C2678.51,1053.58 2650,966.024 2609.54,886.767C2523.47,718.132 2381.11,613.921 2165.01,612.363C2026.67,611.367 1933.35,641.072 1796.13,740.439C1682.86,822.467 1627.05,988.003 1613.33,1145.7ZM1667.53,1152.21C1679.86,1010.44 1724.77,859.286 1826.6,785.54C1952.9,694.08 2038.47,666.737 2165.8,666.737C2342.7,666.737 2484.16,760.959 2560.64,910.799C2597.43,982.87 2624.09,1062.29 2624.09,1148.93C2624.09,1280.09 2585.8,1405.77 2483.66,1495.72C2390.86,1577.44 2278.82,1627.14 2145.88,1627.14C2093.93,1627.14 2042.38,1623.12 1997.12,1603.67C1806.94,1521.91 1649.25,1362.36 1667.53,1152.21ZM1901.19,1001.91C1901.19,1055.82 1938.33,1099.59 1998.86,1099.59C2052.77,1099.59 2096.54,1055.82 2096.54,1001.91C2096.54,948.003 2051.53,904.237 1998.86,907.964C1945.09,911.77 1901.19,948.003 1901.19,1001.91ZM2195.23,1295.95C2195.23,1349.86 2220.47,1400.05 2292.9,1393.62C2361.82,1387.51 2390.58,1349.86 2390.58,1295.95C2390.58,1242.04 2359.13,1198.28 2292.9,1198.28C2238.99,1198.28 2195.23,1242.04 2195.23,1295.95ZM2195.23,1001.91C2200.5,1065.94 2238.99,1099.59 2292.9,1099.59C2346.81,1099.59 2386.86,1055.69 2390.58,1001.91C2395.49,930.749 2346.81,904.237 2292.9,904.237C2238.99,904.237 2190.8,948.185 2195.23,1001.91ZM1901.19,1295.95C1901.19,1349.86 1944.95,1393.62 1998.86,1393.62C2052.77,1393.62 2096.54,1358.5 2096.54,1304.59C2096.54,1250.68 2052.77,1198.28 1998.86,1198.28C1944.95,1198.28 1901.19,1231.92 1901.19,1295.95Z" style="fill:white;"/></svg>